<svg xmlns="http://www.w3.org/2000/svg" fill="none" viewBox="12.37 12.97 87.76 53.03">
<path d="M33.0523 26.3805H50.5725C51.9732 26.3805 53.1088 27.516 53.1088 28.9168V63.4637C53.1088 64.8644 51.9732 66 50.5725 66H50.1515C48.9876 66 47.973 65.2078 47.6908 64.0785L40.7776 36.4115C40.4954 35.2822 39.4809 34.49 38.3169 34.49H27.3502C26.5555 34.49 25.8068 34.1176 25.3274 33.4838L12.9073 17.064C11.0948 14.6677 14.2166 11.6672 16.5392 13.5733L31.4433 25.8047C31.8969 26.177 32.4655 26.3805 33.0523 26.3805Z" fill="black"/>
<path d="M79.4414 26.3805H61.9212C60.5204 26.3805 59.3849 27.516 59.3849 28.9168V63.4637C59.3849 64.8644 60.5204 66 61.9212 66H62.3421C63.5061 66 64.5206 65.2078 64.8028 64.0785L71.7161 36.4115C71.9982 35.2822 73.0128 34.49 74.1767 34.49H85.1434C85.9381 34.49 86.6869 34.1176 87.1663 33.4838L99.5863 17.064C101.399 14.6677 98.277 11.6672 95.9545 13.5733L81.0504 25.8047C80.5968 26.177 80.0282 26.3805 79.4414 26.3805Z" fill="black"/>
</svg>