<svg width="75" height="46" viewBox="0 0 75 46" fill="none" xmlns="http://www.w3.org/2000/svg">
<g clip-path="url(#clip0_201_5)">
<path d="M17.043 10.81H31.9629C33.3637 10.81 34.4992 11.9455 34.4992 13.3463V42.6363C34.4992 43.9789 33.4109 45.0672 32.0683 45.0672C30.9555 45.0672 29.9847 44.3115 29.7117 43.2326L23.7666 19.7361C23.4818 18.6105 22.4689 17.8219 21.3078 17.8219H12.0939C11.3046 17.8219 10.5603 17.4545 10.0803 16.8279L1.00459 4.97868C-0.822289 2.59352 2.28103 -0.425695 4.61512 1.466L15.446 10.2441C15.8978 10.6102 16.4615 10.81 17.043 10.81Z" fill="white"/>
<path d="M57.4507 10.81H42.5308C41.13 10.81 39.9944 11.9455 39.9944 13.3463V42.6363C39.9944 43.9789 41.0828 45.0672 42.4253 45.0672C43.5382 45.0672 44.5089 44.3115 44.7819 43.2326L50.727 19.7361C51.0118 18.6105 52.0247 17.8219 53.1859 17.8219H62.3998C63.1891 17.8219 63.9334 17.4545 64.4133 16.8279L73.4891 4.97868C75.3159 2.59352 72.2126 -0.425695 69.8785 1.466L59.0476 10.2441C58.5959 10.6102 58.0321 10.81 57.4507 10.81Z" fill="white"/>
</g>
<defs>
<clipPath id="clip0_201_5">
<rect width="75" height="46" fill="white"/>
</clipPath>
</defs>
</svg>
