<svg width="30" height="29" viewBox="0 0 30 29" fill="none" xmlns="http://www.w3.org/2000/svg">
<g filter="url(#filter0_dd_4406_1238)">
<rect x="2.90039" y="2.89746" width="23.2" height="23.2" rx="11.6" fill="#3F3F3F"/>
<rect x="3.40039" y="3.39746" width="22.2" height="22.2" rx="11.1" stroke="#0E0E0E"/>
<path d="M15.0675 9.87699L15.0668 9.87573C14.958 9.65748 14.852 9.53604 14.7769 9.47535C14.7406 9.44605 14.7145 9.4332 14.7003 9.42775C14.687 9.42264 14.6812 9.42275 14.6804 9.42275C14.6795 9.42275 14.6734 9.42264 14.6597 9.42793C14.6451 9.43354 14.6184 9.44665 14.5816 9.4763C14.5054 9.53756 14.3985 9.65951 14.2884 9.87771C14.2883 9.87796 14.2882 9.8782 14.2881 9.87845L13.2372 11.9749C13.1002 12.2523 12.8786 12.478 12.6623 12.6379C12.4451 12.7985 12.1656 12.9428 11.8647 12.9933L11.8633 12.9936L9.95558 13.3101C9.95549 13.3101 9.95539 13.3101 9.9553 13.3102C9.95528 13.3102 9.95525 13.3102 9.95523 13.3102C9.72568 13.3484 9.58493 13.4117 9.50799 13.4639C9.47071 13.4892 9.45084 13.5101 9.44102 13.5225C9.43169 13.5343 9.42922 13.5412 9.4284 13.5438C9.42758 13.5463 9.4256 13.5533 9.42633 13.5684C9.42709 13.5842 9.43112 13.6127 9.44675 13.6549C9.47901 13.7419 9.55663 13.8749 9.72082 14.0389C9.72084 14.0389 9.72085 14.0389 9.72087 14.039L11.2036 15.5177C11.4383 15.7516 11.5871 16.0548 11.6676 16.3354C11.7483 16.6163 11.7821 16.9503 11.7103 17.2702L11.7092 17.275L11.7092 17.275L11.2845 19.1065L11.2845 19.1067C11.2154 19.4042 11.2169 19.6042 11.2387 19.7203C11.2469 19.7645 11.2567 19.7906 11.2635 19.8048C11.2795 19.8072 11.3084 19.8087 11.3551 19.8029C11.4743 19.788 11.6673 19.728 11.9316 19.5716L11.932 19.5714L13.7192 18.5151L13.7247 18.5119L13.7247 18.5119C14.0252 18.3378 14.3735 18.2713 14.6825 18.2713C14.9908 18.2713 15.3404 18.3376 15.6408 18.5148L15.6411 18.515L17.4287 19.5708L15.0675 9.87699ZM15.0675 9.87699L16.1191 11.9749C16.2562 12.2526 16.4781 12.4786 16.696 12.6389C16.9153 12.8002 17.1965 12.9437 17.4996 12.9937L15.0675 9.87699ZM19.6412 14.0386L19.6429 14.0369C19.8083 13.873 19.886 13.7403 19.9181 13.6541C19.9337 13.6123 19.9376 13.5843 19.9384 13.5689C19.939 13.5544 19.9371 13.5477 19.9363 13.5453C19.9356 13.5428 19.9331 13.5358 19.9235 13.5238C19.9135 13.5111 19.8933 13.4899 19.8556 13.4645C19.7778 13.4119 19.6362 13.3484 19.4064 13.3102C19.4063 13.3101 19.4062 13.3101 19.4061 13.3101L17.4997 12.9937L19.6412 14.0386ZM19.6412 14.0386L18.158 15.5177C18.158 15.5178 18.1579 15.5179 18.1578 15.518C17.9232 15.7518 17.7745 16.0549 17.694 16.3354C17.6134 16.6163 17.5795 16.9503 17.6514 17.2702L17.6513 17.2702M19.6412 14.0386L17.6513 17.2702M17.6513 17.2702L17.6525 17.275M17.6513 17.2702L17.6525 17.275M17.6525 17.275L18.077 19.106M17.6525 17.275L18.077 19.106M18.077 19.106C18.1464 19.4062 18.1452 19.6076 18.1235 19.7246C18.1158 19.7664 18.1068 19.792 18.1002 19.8065C18.0838 19.8086 18.0553 19.8096 18.0105 19.8039C17.8901 19.7887 17.6959 19.7281 17.4295 19.5713L18.077 19.106ZM11.2473 19.8008C11.2474 19.8007 11.2487 19.8011 11.2509 19.8022C11.2484 19.8015 11.2473 19.8009 11.2473 19.8008ZM11.2697 19.816C11.2715 19.8178 11.2722 19.8189 11.2721 19.819C11.2721 19.8191 11.2712 19.8182 11.2697 19.816ZM18.0909 19.8224C18.0908 19.8223 18.0916 19.8212 18.0933 19.8193C18.0919 19.8216 18.091 19.8225 18.0909 19.8224ZM18.1146 19.8037C18.1168 19.8026 18.1181 19.8023 18.1181 19.8024C18.1182 19.8025 18.1171 19.803 18.1146 19.8037Z" fill="#0E0E0E" stroke="#0E0E0E" stroke-width="1.45" stroke-linecap="round" stroke-linejoin="round"/>
</g>
<defs>
<filter id="filter0_dd_4406_1238" x="-0.0996094" y="0.897461" width="29.2002" height="29.2002" filterUnits="userSpaceOnUse" color-interpolation-filters="sRGB">
<feFlood flood-opacity="0" result="BackgroundImageFix"/>
<feColorMatrix in="SourceAlpha" type="matrix" values="0 0 0 0 0 0 0 0 0 0 0 0 0 0 0 0 0 0 127 0" result="hardAlpha"/>
<feOffset dy="1"/>
<feGaussianBlur stdDeviation="1"/>
<feColorMatrix type="matrix" values="0 0 0 0 0.0627451 0 0 0 0 0.0941176 0 0 0 0 0.156863 0 0 0 0.06 0"/>
<feBlend mode="normal" in2="BackgroundImageFix" result="effect1_dropShadow_4406_1238"/>
<feColorMatrix in="SourceAlpha" type="matrix" values="0 0 0 0 0 0 0 0 0 0 0 0 0 0 0 0 0 0 127 0" result="hardAlpha"/>
<feOffset dy="1"/>
<feGaussianBlur stdDeviation="1.5"/>
<feColorMatrix type="matrix" values="0 0 0 0 0.0627451 0 0 0 0 0.0941176 0 0 0 0 0.156863 0 0 0 0.1 0"/>
<feBlend mode="normal" in2="effect1_dropShadow_4406_1238" result="effect2_dropShadow_4406_1238"/>
<feBlend mode="normal" in="SourceGraphic" in2="effect2_dropShadow_4406_1238" result="shape"/>
</filter>
</defs>
</svg>
