<svg width="30" height="30" viewBox="0 0 30 30" fill="none" xmlns="http://www.w3.org/2000/svg">
<g filter="url(#filter0_dd_4406_1942)">
<rect x="3" y="2" width="23.2" height="23.2" rx="11.6" fill="#3F3F3F"/>
<rect x="3.5" y="2.5" width="22.2" height="22.2" rx="11.1" stroke="white"/>
<path d="M15.1671 8.97953L15.1664 8.97827C15.0576 8.76002 14.9516 8.63858 14.8765 8.57789C14.8402 8.54859 14.8141 8.53574 14.7999 8.53029C14.7869 8.52528 14.781 8.52529 14.78 8.52529L14.78 8.52529C14.7791 8.52529 14.7731 8.52518 14.7593 8.53047C14.7447 8.53608 14.7181 8.54919 14.6812 8.57883C14.605 8.6401 14.4981 8.76205 14.3881 8.98025C14.3879 8.9805 14.3878 8.98074 14.3877 8.98098L13.3368 11.0774C13.1998 11.3548 12.9783 11.5805 12.762 11.7405C12.5448 11.9011 12.2652 12.0453 11.9643 12.0959L11.9629 12.0961L10.0552 12.4126C10.0551 12.4127 10.055 12.4127 10.0549 12.4127C10.0549 12.4127 10.0549 12.4127 10.0548 12.4127C9.82528 12.451 9.68454 12.5143 9.6076 12.5664C9.57031 12.5917 9.55045 12.6126 9.54063 12.625C9.5313 12.6369 9.52883 12.6437 9.52801 12.6463C9.52719 12.6489 9.52521 12.6559 9.52594 12.6709C9.5267 12.6867 9.53073 12.7152 9.54636 12.7574C9.57861 12.8444 9.6562 12.9774 9.82029 13.1413C9.82035 13.1414 9.82042 13.1414 9.82048 13.1415L11.3032 14.6203C11.3033 14.6203 11.3033 14.6203 11.3033 14.6204C11.3034 14.6204 11.3034 14.6205 11.3035 14.6205C11.538 14.8543 11.6868 15.1574 11.7673 15.4379C11.8479 15.7189 11.8817 16.0528 11.8099 16.3727L11.8088 16.3776L11.8088 16.3776L11.3841 18.2091L11.3841 18.2092C11.315 18.5067 11.3165 18.7067 11.3383 18.8229C11.3466 18.867 11.3563 18.8932 11.3631 18.9074C11.3791 18.9097 11.408 18.9112 11.4547 18.9054C11.5739 18.8905 11.7669 18.8306 12.0312 18.6741L12.0316 18.6739L13.8188 17.6176L13.8243 17.6144L13.8243 17.6144C14.1248 17.4404 14.4731 17.3739 14.7821 17.3739C15.0904 17.3739 15.44 17.4401 15.7404 17.6173L15.7407 17.6175L17.5283 18.6734C17.5284 18.6734 17.5285 18.6735 17.5286 18.6735C17.7952 18.8305 17.9897 18.8913 18.1101 18.9065C18.1549 18.9121 18.1834 18.9111 18.1998 18.909C18.2064 18.8946 18.2154 18.869 18.2231 18.8271C18.2448 18.7102 18.246 18.5087 18.1766 18.2085L17.7521 16.3776L17.751 16.3727L17.751 16.3727C17.6791 16.0528 17.713 15.7189 17.7936 15.4379C17.8741 15.1574 18.0228 14.8543 18.2574 14.6205C18.2575 14.6204 18.2576 14.6204 18.2576 14.6203L19.7408 13.1411L19.7425 13.1394C19.9079 12.9755 19.9856 12.8428 20.0178 12.7566C20.0333 12.7149 20.0372 12.6868 20.038 12.6715C20.0387 12.6569 20.0367 12.6502 20.036 12.6478C20.0352 12.6454 20.0327 12.6384 20.0231 12.6263C20.0131 12.6136 19.9929 12.5925 19.9552 12.567C19.8774 12.5144 19.7358 12.451 19.506 12.4127C19.5059 12.4127 19.5058 12.4127 19.5057 12.4127L17.5993 12.0962C17.5993 12.0962 17.5992 12.0962 17.5992 12.0962L17.5985 12.0961L17.7173 11.3809C17.3943 11.3276 17.0115 11.0471 16.8679 10.7548L15.1671 8.97953ZM15.1671 8.97953L16.2187 11.0774L15.1671 8.97953ZM18.1905 18.9249C18.1904 18.9249 18.1912 18.9237 18.193 18.9218C18.1915 18.9241 18.1906 18.925 18.1905 18.9249ZM18.2142 18.9062C18.2164 18.9052 18.2177 18.9048 18.2177 18.9049C18.2178 18.905 18.2167 18.9055 18.2142 18.9062ZM11.347 18.9034C11.347 18.9033 11.3483 18.9036 11.3505 18.9047C11.348 18.904 11.3469 18.9034 11.347 18.9034ZM11.3693 18.9185C11.3711 18.9204 11.3718 18.9215 11.3717 18.9216C11.3717 18.9217 11.3708 18.9207 11.3693 18.9185Z" fill="white" stroke="white" stroke-width="1.45" stroke-linecap="round" stroke-linejoin="round"/>
</g>
<defs>
<filter id="filter0_dd_4406_1942" x="0" y="0" width="29.2002" height="29.2002" filterUnits="userSpaceOnUse" color-interpolation-filters="sRGB">
<feFlood flood-opacity="0" result="BackgroundImageFix"/>
<feColorMatrix in="SourceAlpha" type="matrix" values="0 0 0 0 0 0 0 0 0 0 0 0 0 0 0 0 0 0 127 0" result="hardAlpha"/>
<feOffset dy="1"/>
<feGaussianBlur stdDeviation="1"/>
<feColorMatrix type="matrix" values="0 0 0 0 0.0627451 0 0 0 0 0.0941176 0 0 0 0 0.156863 0 0 0 0.06 0"/>
<feBlend mode="normal" in2="BackgroundImageFix" result="effect1_dropShadow_4406_1942"/>
<feColorMatrix in="SourceAlpha" type="matrix" values="0 0 0 0 0 0 0 0 0 0 0 0 0 0 0 0 0 0 127 0" result="hardAlpha"/>
<feOffset dy="1"/>
<feGaussianBlur stdDeviation="1.5"/>
<feColorMatrix type="matrix" values="0 0 0 0 0.0627451 0 0 0 0 0.0941176 0 0 0 0 0.156863 0 0 0 0.1 0"/>
<feBlend mode="normal" in2="effect1_dropShadow_4406_1942" result="effect2_dropShadow_4406_1942"/>
<feBlend mode="normal" in="SourceGraphic" in2="effect2_dropShadow_4406_1942" result="shape"/>
</filter>
</defs>
</svg>
