<svg width="79" height="47" viewBox="0 0 79 47" fill="none" xmlns="http://www.w3.org/2000/svg">
<path d="M23.0933 18.7766H36.0708C36.7534 18.7766 37.3068 19.33 37.3068 20.0127V44.8857C37.3068 45.5684 36.7534 46.1218 36.0708 46.1218H34.8181C34.2522 46.1218 33.7586 45.7375 33.6198 45.1889L28.5892 25.3066C28.4504 24.758 27.9567 24.3738 27.3909 24.3738H19.0329C18.6482 24.3738 18.2855 24.1947 18.0516 23.8893L6.52737 8.84338C5.63705 7.68099 7.14944 6.20961 8.28693 7.13151L22.315 18.5008C22.5352 18.6792 22.8099 18.7766 23.0933 18.7766Z" fill="white"/>
<path d="M55.9069 18.7767H42.9295C42.2468 18.7767 41.6934 19.3301 41.6934 20.0127V44.8858C41.6934 45.5685 42.2468 46.1219 42.9295 46.1219H44.1822C44.748 46.1219 45.2416 45.7376 45.3804 45.189L50.4111 25.3067C50.5499 24.7581 51.0435 24.3738 51.6094 24.3738H59.9674C60.352 24.3738 60.7147 24.1948 60.9486 23.8894L72.4729 8.84344C73.3632 7.68105 71.8508 6.20967 70.7133 7.13157L56.6852 18.5009C56.4651 18.6793 56.1903 18.7767 55.9069 18.7767Z" fill="white"/>
</svg>
