<svg width="66" height="38" viewBox="0 0 66 38" fill="none" xmlns="http://www.w3.org/2000/svg">
<path d="M19.6076 15.1219H29.9632C30.6458 15.1219 31.1992 15.6753 31.1992 16.3579V36.3376C31.1992 37.0203 30.6458 37.5737 29.9632 37.5737H29.3281C28.7622 37.5737 28.2686 37.1894 28.1298 36.6408L24.0838 20.6503C23.945 20.1017 23.4514 19.7174 22.8855 19.7174H16.3046C15.9199 19.7174 15.5572 19.5383 15.3233 19.233L7.06179 8.44684C6.17148 7.28445 7.68385 5.81306 8.82135 6.73496L18.8293 14.8461C19.0494 15.0245 19.3242 15.1219 19.6076 15.1219Z" fill="black"/>
<path d="M46.3925 15.1219H36.0369C35.3542 15.1219 34.8008 15.6753 34.8008 16.3579V36.3377C34.8008 37.0203 35.3542 37.5737 36.0369 37.5737H36.672C37.2379 37.5737 37.7315 37.1895 37.8703 36.6409L41.9163 20.6503C42.0551 20.1017 42.5487 19.7175 43.1145 19.7175H49.6955C50.0801 19.7175 50.4429 19.5384 50.6768 19.233L58.9383 8.44687C59.8286 7.28448 58.3162 5.81309 57.1787 6.73499L47.1708 14.8461C46.9506 15.0245 46.6759 15.1219 46.3925 15.1219Z" fill="black"/>
</svg>
