<svg width="635" height="443" viewBox="0 0 635 443" fill="none" xmlns="http://www.w3.org/2000/svg">
<g clip-path="url(#clip0_707_697)">
<path d="M168.082 161.491C168.082 161.491 153.905 156.258 147.19 156.258C146.548 156.258 145.914 156.332 145.279 156.467C140.982 157.379 137.027 161.08 135.132 163.098C134.393 163.891 133.968 164.422 133.968 164.422C133.968 164.422 134.013 163.906 134.102 163.001C134.542 158.246 136.169 142.643 139.086 132.654C140.131 129.088 141.332 126.24 142.713 124.856C145.929 121.627 147.413 117.754 148.1 114.868C148.682 112.393 148.682 110.651 148.682 110.651L143.242 108.304L142.235 101.709C142.056 102.487 141.228 104.005 138.445 106.913C138.206 107.16 137.945 107.369 137.669 107.549C133.654 110.076 125.469 105.679 121.059 102.913C122.895 96.5208 126.223 90.6742 132.267 89.7172C146.443 87.4743 146.443 79.2502 155.397 88.222C156.136 88.9621 156.882 89.6724 157.628 90.3602C160.493 95.8479 161.538 103.205 161.911 108.319C162.18 111.9 162.113 114.389 162.113 114.389C162.113 114.389 165.843 136.819 171.813 141.305C177.782 145.791 168.082 161.491 168.082 161.491Z" fill="#2F2E41"/>
<path d="M140.474 125.604L130.392 140.422L153.159 146.538V125.604H140.474Z" fill="#FFB6B6"/>
<path opacity="0.1" d="M140.474 125.604L130.392 140.422L153.159 146.538V125.604H140.474Z" fill="black"/>
<path d="M519.483 362.564C520.566 362.134 521.944 364.559 522.874 364.127C523.8 363.697 522.754 361.14 523.601 357.804C523.754 357.202 524.717 353.411 526.302 353.237C529.305 352.907 531.897 365.864 536.385 365.753C537.37 365.728 538.55 365.072 541.613 364.893C542.831 364.822 543.492 364.876 543.836 365.313C544.325 365.932 543.747 366.781 543.167 368.878C542.296 372.023 542.982 372.324 542.078 374.672C541.407 376.414 540.676 377.164 541.047 377.708C541.573 378.477 543.376 377.473 544.161 378.295C544.961 379.134 544.16 381.308 543.323 382.752C541.753 385.462 539.601 386.387 537.787 387.706C535.815 389.14 533.32 391.711 531.497 396.672L516.907 441.3C519.708 431.993 526.962 406.153 529.273 396.253C529.94 393.395 530.53 390.429 529.001 387.895C527.529 385.455 524.27 383.71 521.277 379.977C520.928 379.542 519.97 378.316 520.362 377.497C520.685 376.821 521.636 377.039 521.947 376.412C522.365 375.571 520.994 374.495 519.948 372.343C519.211 370.826 519.011 369.544 518.839 368.442C518.787 368.11 518.042 363.138 519.483 362.564Z" fill="#F2F2F2"/>
<path d="M554.084 418.777C554.607 419.185 553.817 420.563 554.297 420.895C554.774 421.227 555.725 419.974 557.604 419.429C557.943 419.33 560.078 418.71 560.62 419.439C561.648 420.82 556.05 425.834 557.399 428.009C557.695 428.486 558.357 428.878 559.328 430.332C559.714 430.91 559.879 431.251 559.764 431.546C559.602 431.965 559.019 431.926 557.825 432.246C556.033 432.725 556.083 433.15 554.673 433.382C553.625 433.555 553.047 433.412 552.888 433.751C552.663 434.232 553.675 434.829 553.499 435.452C553.319 436.087 552.023 436.321 551.074 436.326C549.293 436.336 548.22 435.544 547.05 435.033C545.778 434.477 543.799 433.991 540.843 434.526L514.774 440.228C520.141 438.92 534.891 435.032 540.407 433.312C541.999 432.815 543.622 432.249 544.422 430.766C545.193 429.338 545.107 427.232 546.072 424.683C546.185 424.386 546.509 423.561 547.023 423.518C547.447 423.481 547.615 424.012 548.012 423.984C548.544 423.947 548.675 422.962 549.428 421.827C549.959 421.027 550.529 420.559 551.019 420.156C551.167 420.035 553.387 418.233 554.084 418.777Z" fill="#F2F2F2"/>
<path d="M541.798 413.03L544.294 410.446L544.315 410.12C544.411 408.611 544.816 407.379 545.521 406.457C545.633 406.31 545.752 406.169 545.874 406.026C546.356 405.457 546.955 404.75 547.232 403.6C547.386 402.957 547.635 401.389 546.626 400.826C546.356 400.672 546.086 400.642 545.845 400.665C545.85 400.616 545.854 400.567 545.859 400.514C545.909 399.866 545.829 399.509 545.751 399.166C545.691 398.901 545.629 398.629 545.619 398.089C545.614 397.852 545.622 397.653 545.628 397.486C545.646 396.978 545.641 396.353 545.097 395.943C544.501 395.525 543.832 395.769 543.389 395.93C542.599 396.217 542.125 396.497 541.811 396.684C541.696 396.752 541.567 396.828 541.518 396.845C541.122 396.975 539.812 395.553 539.316 395.021C538.205 393.821 537.244 392.783 536.168 393.237C535.398 393.562 535.053 394.511 535.117 396.136C535.137 396.642 535.23 397.087 535.332 397.458C535.038 397.423 534.716 397.468 534.42 397.701C533.72 398.254 533.778 399.396 534.591 401.097C534.792 401.521 535.065 402.09 535.605 402.68C535.86 402.958 536.115 403.175 536.336 403.357C536.24 403.491 536.161 403.657 536.128 403.865C536.03 404.476 536.359 405.057 537.13 405.576C537.969 406.158 538.753 406.517 539.443 406.836C540.045 407.114 540.563 407.356 540.891 407.647C541.493 408.196 541.591 409.093 541.657 410.21L541.798 413.03Z" fill="#F2F2F2"/>
<path d="M553.311 395.055L555.172 398.13L555.481 398.232C556.914 398.708 558 399.413 558.712 400.33C558.825 400.476 558.93 400.627 559.038 400.781C559.465 401.393 559.996 402.153 561.036 402.714C561.617 403.025 563.068 403.665 563.867 402.83C564.084 402.607 564.182 402.353 564.221 402.114C564.266 402.131 564.313 402.147 564.363 402.166C564.975 402.378 565.34 402.391 565.692 402.402C565.962 402.412 566.241 402.421 566.765 402.548C566.994 402.603 567.185 402.661 567.345 402.71C567.83 402.856 568.435 403.009 568.969 402.586C569.523 402.114 569.458 401.404 569.415 400.934C569.338 400.096 569.187 399.565 569.087 399.213C569.051 399.085 569.01 398.94 569.006 398.888C568.981 398.472 570.685 397.563 571.325 397.217C572.765 396.445 574.011 395.776 573.845 394.619C573.728 393.79 572.899 393.215 571.314 392.864C570.82 392.755 570.367 392.732 569.983 392.737C570.092 392.461 570.13 392.138 569.98 391.792C569.624 390.973 568.507 390.74 566.658 391.096C566.197 391.184 565.58 391.304 564.873 391.678C564.54 391.854 564.266 392.046 564.034 392.214C563.928 392.087 563.788 391.968 563.596 391.884C563.031 391.634 562.386 391.805 561.691 392.421C560.916 393.087 560.37 393.755 559.887 394.343C559.466 394.856 559.101 395.297 558.737 395.541C558.054 395.985 557.163 395.853 556.068 395.633L553.311 395.055Z" fill="#F2F2F2"/>
<path d="M561.199 387.858L563.695 385.274L563.716 384.948C563.812 383.439 564.217 382.207 564.922 381.285C565.034 381.138 565.153 380.997 565.275 380.854C565.757 380.285 566.356 379.578 566.633 378.428C566.787 377.786 567.036 376.217 566.027 375.654C565.758 375.5 565.487 375.47 565.247 375.493C565.251 375.444 565.255 375.395 565.26 375.342C565.311 374.694 565.23 374.337 565.152 373.994C565.092 373.73 565.03 373.457 565.02 372.917C565.015 372.68 565.023 372.481 565.029 372.314C565.047 371.806 565.042 371.181 564.498 370.771C563.902 370.353 563.233 370.597 562.79 370.758C562 371.045 561.526 371.325 561.212 371.512C561.097 371.58 560.968 371.656 560.919 371.673C560.523 371.803 559.213 370.381 558.717 369.849C557.606 368.65 556.645 367.611 555.57 368.065C554.8 368.39 554.454 369.339 554.518 370.964C554.538 371.47 554.631 371.915 554.733 372.286C554.439 372.251 554.117 372.296 553.821 372.529C553.121 373.082 553.179 374.224 553.993 375.926C554.194 376.349 554.466 376.918 555.006 377.508C555.261 377.786 555.516 378.003 555.737 378.185C555.641 378.319 555.562 378.485 555.529 378.693C555.431 379.304 555.76 379.885 556.531 380.404C557.371 380.986 558.154 381.346 558.844 381.664C559.446 381.942 559.964 382.184 560.293 382.475C560.894 383.024 560.992 383.921 561.058 385.039L561.199 387.858Z" fill="#F2F2F2"/>
<path d="M515.998 440.523L516.875 440.609L517.504 441.222C517.564 441.166 517.716 441.047 517.95 440.86C519.233 439.835 523.141 436.715 528.597 431.261C532.406 427.454 536.068 423.345 539.485 419.045C542.907 414.738 545.243 411.28 547.121 408.502C548.537 406.406 549.853 404.385 551.134 402.416C554.558 397.155 557.792 392.187 562.063 387.22C563.016 386.111 565 383.803 568.379 382.327C570.338 381.471 572.477 381.02 574.734 380.988L574.709 379.22C572.216 379.257 569.849 379.758 567.673 380.708C563.927 382.344 561.765 384.859 560.726 386.067C556.379 391.122 553.114 396.139 549.658 401.45C548.381 403.412 547.071 405.424 545.661 407.512C543.8 410.264 541.484 413.691 538.106 417.943C534.731 422.192 531.113 426.251 527.353 430.01C521.965 435.395 518.115 438.468 516.851 439.478C516.176 440.017 516.034 440.13 515.998 440.523Z" fill="#F2F2F2"/>
<path d="M575.581 385.191C575.638 385.235 575.697 385.278 575.759 385.32C576.997 386.175 578.647 386.314 580.663 385.733C581.61 385.459 582.401 384.922 583.977 383.85C584.221 383.685 585.44 382.837 586.846 381.459C587.765 380.559 588.073 380.123 588.16 379.596C588.259 379.009 588.124 378.442 587.871 377.935C587.991 377.815 588.084 377.666 588.134 377.48C588.346 376.713 587.654 376.3 587.284 376.072C587.094 375.96 586.856 375.822 586.632 375.629C586.279 375.328 586.166 375.066 585.994 374.671C585.83 374.293 585.625 373.823 585.182 373.308C584.31 372.287 583.213 371.908 582.851 371.783C580.953 371.119 579.303 371.719 577.392 372.414C577.01 372.554 575.654 373.092 574.215 374.154C573.176 374.92 572.879 375.388 572.713 375.778C572.37 376.579 572.48 377.275 572.86 378.916C573.254 380.632 573.453 381.492 573.709 382.119C574.306 383.578 574.682 384.495 575.581 385.191Z" fill="#F2F2F2"/>
<path d="M519.618 434.13L506.472 434.129L500.219 383.321L519.621 383.323L519.618 434.13Z" fill="#A0616A"/>
<path d="M474.579 433.831C474.17 434.522 473.954 436.751 473.954 437.555C473.954 440.024 475.951 442.025 478.415 442.025H519.127C520.808 442.025 522.17 440.66 522.17 438.975V437.277C522.17 437.277 524.184 432.173 520.038 425.881C520.038 425.881 514.885 430.808 507.184 423.092L504.913 418.97L488.476 431.015L479.365 432.139C477.372 432.385 475.604 432.101 474.579 433.831Z" fill="#2F2E41"/>
<path d="M483.721 434.13L470.576 434.129L464.322 383.321L483.724 383.323L483.721 434.13Z" fill="#A0616A"/>
<path d="M438.682 433.831C438.273 434.522 438.057 436.751 438.057 437.555C438.057 440.024 440.054 442.025 442.519 442.025H483.23C484.911 442.025 486.274 440.66 486.274 438.975V437.277C486.274 437.277 488.287 432.173 484.141 425.881C484.141 425.881 478.988 430.808 471.287 423.092L469.017 418.97L452.579 431.015L443.468 432.139C441.475 432.385 439.707 432.101 438.682 433.831Z" fill="#2F2E41"/>
<path d="M484.73 69.9726C484.73 69.9726 477.884 73.996 480.129 77.9748C482.375 81.9537 485.505 87.3733 483.381 89.0802C481.258 90.787 477.751 98.3126 477.751 98.3126C477.751 98.3126 462.786 96.2182 464.191 107.867C465.596 119.515 472.626 121.103 466.6 126.228C460.574 131.352 472.863 137.481 472.863 137.481C472.863 137.481 481.347 134.832 483.283 126.686C485.218 118.539 481.557 132.914 482.785 133.945C484.013 134.976 488.78 141.77 492.154 132.737C495.527 123.704 492.187 120.202 496.644 114.871C501.102 109.539 504.132 100.917 503.999 99.4093C503.867 97.902 509.098 84.1476 501.046 78.7835C492.993 73.4194 484.73 69.9726 484.73 69.9726Z" fill="#2F2E41"/>
<path d="M487.875 101.959L483.029 119.218H509.627L500.868 97.9524L487.875 101.959Z" fill="#A0616A"/>
<path opacity="0.1" d="M487.875 101.959L483.029 119.218H509.627L500.868 97.9524L487.875 101.959Z" fill="black"/>
<path d="M521.949 222.424C521.949 222.424 533.311 236.913 530.729 265.891C528.147 294.869 519.367 421.186 519.367 421.186H504.165L491.996 303.148L484.549 421.186L461.299 420.106L466.621 212.967L521.949 222.424Z" fill="#2F2E41"/>
<path d="M401.923 122.648C398.497 117.976 398.126 112.417 401.094 110.233C404.062 108.049 409.244 110.067 412.67 114.741C414.064 116.59 414.997 118.746 415.389 121.029L429.653 141.01L420.153 147.517L407.099 127.129C405.041 126.071 403.266 124.534 401.923 122.648Z" fill="#A0616A"/>
<path d="M489.21 141.932L448.77 171.407C448.77 171.407 439.796 177.457 429.418 164.292C419.04 151.126 408.585 130.778 408.585 130.778L417.939 123.802L429.34 138.689C429.34 138.689 436.867 143.528 437.031 145.762C437.194 147.997 435.443 148.574 438.119 148.378C440.795 148.182 441.133 146.671 440.855 149.007C440.577 151.342 438.511 153.74 441.948 151.691C445.385 149.642 445.962 151.397 445.962 151.397L472.871 126.958C472.871 126.958 488.849 118.597 490.971 129.224C493.093 139.85 489.21 141.932 489.21 141.932Z" fill="#C5C5C5"/>
<path d="M483.992 117.12H507.678L529.438 151.272L520.4 198.62L526.339 228.892L465.875 212.967L470.632 211.08L473.147 191.635L462.301 158.452L471.597 131.091L483.992 117.12Z" fill="#C5C5C5"/>
<path d="M510.212 89.6601C510.212 98.5241 503.041 105.71 494.194 105.71C485.348 105.71 478.177 98.5241 478.177 89.6601C478.177 80.7961 485.348 73.6104 494.194 73.6104C503.041 73.6104 510.212 80.7961 510.212 89.6601Z" fill="#A0616A"/>
<path d="M488.054 71.738C488.054 71.738 485.385 79.2278 489.656 80.8328C493.927 82.4377 499.801 84.5777 499.267 87.2526C498.733 89.9276 500.868 97.9524 500.868 97.9524C500.868 97.9524 488.054 105.977 496.597 114.002C505.14 122.027 511.547 118.72 510.212 126.526C508.877 134.332 522.225 131.122 522.225 131.122C522.225 131.122 527.031 123.632 523.293 116.142C519.556 108.652 525.963 122.027 527.564 122.027C529.166 122.027 537.175 124.167 533.971 115.072C530.768 105.977 525.963 105.442 525.963 98.4874C525.963 91.5325 522.759 82.9727 521.691 81.9027C520.623 80.8328 515.818 66.9231 506.208 67.993C496.597 69.063 488.054 71.738 488.054 71.738Z" fill="#2F2E41"/>
<path d="M508.76 248.105C507.257 253.941 503.035 257.894 499.329 256.935C495.623 255.976 493.838 250.469 495.342 244.632C495.91 242.292 497.03 240.123 498.607 238.305L505.286 213.662L516.76 217.049L508.958 240.983C509.461 243.339 509.393 245.781 508.76 248.105Z" fill="#A0616A"/>
<path d="M505.717 142.354C505.717 142.354 512.216 124.755 519.34 125.901C526.463 127.047 532.957 138.109 532.957 138.109L527.808 200.712L513.664 236.437L498.661 230.51L506.454 194.807L505.717 142.354Z" fill="#C5C5C5"/>
<path d="M111.122 433.506L124.785 433.505L131.284 380.701L111.12 380.702L111.122 433.506Z" fill="#FFB6B6"/>
<path d="M157.932 433.196C158.357 433.914 158.582 436.231 158.582 437.065C158.582 439.632 156.506 441.712 153.944 441.712H111.633C109.886 441.712 108.47 440.293 108.47 438.542V436.777C108.47 436.777 106.377 431.472 110.686 424.933C110.686 424.933 116.042 430.053 124.045 422.034L126.405 417.75L143.488 430.269L152.958 431.437C155.029 431.693 156.866 431.397 157.932 433.196Z" fill="#2F2E41"/>
<path d="M83.2194 404.296L92.8019 414.054L134.927 381.664L120.784 367.262L83.2194 404.296Z" fill="#FFB6B6"/>
<path d="M116.268 437.513C116.056 438.32 114.565 440.106 113.971 440.691C112.145 442.491 109.209 442.467 107.413 440.638L77.74 410.415C76.5148 409.167 76.5311 407.16 77.7766 405.933L79.0323 404.695C79.0323 404.695 81.3386 399.479 89.0126 397.972C89.0126 397.972 89.1262 405.388 100.444 405.481L105.147 404.162L108.221 425.144L114.031 432.727C115.302 434.386 116.8 435.491 116.268 437.513Z" fill="#2F2E41"/>
<path d="M168.035 258.685L134.899 176.83L153.429 174.053L178.103 249.173L182.312 260.231C184.378 262.182 185.947 264.601 186.889 267.284C189.338 273.968 187.882 280.65 183.639 282.211C179.395 283.772 173.971 279.621 171.524 272.939C170.509 270.281 170.144 267.419 170.46 264.591L168.177 258.629L168.035 258.685Z" fill="#FFB6B6"/>
<path d="M157.516 153.408L174.41 222.1C174.41 222.1 156.113 215.77 147.954 226.82C147.954 226.82 129.363 156.87 133.129 151.77C136.895 146.67 155.549 145.286 157.398 152.619" fill="#E6E6E6"/>
<path d="M166.138 214.451L178.076 329.588L127.338 396.128L114.653 386.409L145.618 328.467L110.922 250.338C110.922 250.338 116.145 215.199 118.384 210.713C120.622 206.227 166.138 214.451 166.138 214.451Z" fill="#2F2E41"/>
<path d="M117.638 243.609L110.922 250.338L106.072 404.726L132.188 407.717L138.343 283.278L117.638 243.609Z" fill="#2F2E41"/>
<path d="M132.934 134.827L152.334 141.556L168.749 175.947V219.134C168.749 219.134 168.749 223.797 162.78 221.554C156.811 219.311 133.68 210.339 133.68 210.339C133.68 210.339 119.503 219.311 115.772 217.068C112.042 214.825 112.042 213.4 112.042 210.374C112.042 207.348 107.938 180.059 107.938 180.059L121.368 145.668L132.934 134.827Z" fill="#E6E6E6"/>
<path d="M126.681 257.824L105.99 171.958H124.726L138.042 249.908L140.573 261.468C142.328 263.704 143.523 266.328 144.058 269.122C145.493 276.095 143.068 282.487 138.641 283.403C134.213 284.318 129.461 279.409 128.027 272.438C127.416 269.659 127.477 266.774 128.207 264.024L126.829 257.789L126.681 257.824Z" fill="#FFB6B6"/>
<path d="M130.322 152.397L134.505 209.34C134.505 209.34 121.82 207.845 112.12 217.564C112.12 217.564 101.969 151.649 106.445 147.163C110.922 142.677 129.576 144.072 130.322 151.599" fill="#E6E6E6"/>
<path d="M382.486 174.575H210.354C204.942 174.575 200.539 170.163 200.539 164.741V138.803C200.539 133.38 204.942 128.969 210.354 128.969H392.3V164.741C392.3 170.163 387.898 174.575 382.486 174.575Z" fill="#E6E6E6"/>
<path d="M427.294 119.281C427.104 119.281 426.915 119.209 426.77 119.065C426.476 118.775 426.473 118.301 426.763 118.008C428.724 116.019 429.795 113.384 429.778 110.588C429.762 107.792 428.659 105.171 426.675 103.206C424.705 101.256 422.1 100.184 419.334 100.184C419.312 100.184 419.291 100.184 419.269 100.185C416.479 100.201 413.862 101.306 411.902 103.295C411.612 103.589 411.14 103.591 410.846 103.301C410.553 103.011 410.55 102.537 410.84 102.244C413.081 99.9707 416.072 98.7083 419.26 98.6893C419.285 98.689 419.31 98.689 419.334 98.689C422.496 98.689 425.472 99.9137 427.723 102.142C429.991 104.388 431.251 107.384 431.271 110.579C431.29 113.775 430.066 116.786 427.825 119.059C427.679 119.207 427.486 119.281 427.294 119.281Z" fill="#3F3D56"/>
<path d="M337.831 155.884H255.008C252.951 155.884 251.278 154.207 251.278 152.145C251.278 150.084 252.951 148.407 255.008 148.407H337.831C339.888 148.407 341.562 150.084 341.562 152.145C341.562 154.207 339.888 155.884 337.831 155.884Z" fill="white"/>
<path d="M419.908 112.644C417.851 112.644 416.177 110.967 416.177 108.906C416.177 106.844 417.851 105.167 419.908 105.167C421.965 105.167 423.639 106.844 423.639 108.906C423.639 110.967 421.965 112.644 419.908 112.644ZM419.908 106.663C418.673 106.663 417.669 107.669 417.669 108.906C417.669 110.142 418.673 111.148 419.908 111.148C421.142 111.148 422.146 110.142 422.146 108.906C422.146 107.669 421.142 106.663 419.908 106.663Z" fill="#3F3D56"/>
<path d="M246.24 266.161H186.177C183.189 266.161 180.766 268.589 180.766 271.583V335.504C180.766 338.498 183.189 340.925 186.177 340.925H246.24C249.228 340.925 251.651 338.498 251.651 335.504V271.583C251.651 268.589 249.228 266.161 246.24 266.161Z" fill="white"/>
<path d="M246.24 341.673H186.177C182.782 341.673 180.02 338.905 180.02 335.504V271.583C180.02 268.181 182.782 265.413 186.177 265.413H246.24C249.635 265.413 252.397 268.181 252.397 271.583V335.504C252.397 338.905 249.635 341.673 246.24 341.673ZM186.177 266.909C183.605 266.909 181.512 269.006 181.512 271.583V335.504C181.512 338.081 183.605 340.178 186.177 340.178H246.24C248.812 340.178 250.905 338.081 250.905 335.504V271.583C250.905 269.006 248.812 266.909 246.24 266.909H186.177Z" fill="#E6E6E6"/>
<path d="M218.074 275.133H190.466V286.915H218.074V275.133Z" fill="#E6E6E6"/>
<path d="M238.518 309.898H216.283C214.596 309.898 213.224 308.523 213.224 306.832V300.434C213.224 298.743 214.596 297.369 216.283 297.369H238.518C240.205 297.369 241.578 298.743 241.578 300.434V306.832C241.578 308.523 240.205 309.898 238.518 309.898Z" fill="#E6E6E6"/>
<path d="M219.865 329.711H197.629C195.737 329.711 194.197 328.168 194.197 326.271V319.872C194.197 317.976 195.737 316.434 197.629 316.434H219.865C221.757 316.434 223.297 317.976 223.297 319.872V326.271C223.297 328.168 221.757 329.711 219.865 329.711ZM197.629 317.929C196.56 317.929 195.689 318.801 195.689 319.872V326.271C195.689 327.343 196.56 328.216 197.629 328.216H219.865C220.934 328.216 221.805 327.343 221.805 326.271V319.872C221.805 318.801 220.934 317.929 219.865 317.929H197.629Z" fill="#E6E6E6"/>
<path d="M209.12 282.983H197.928C196.899 282.983 196.062 282.145 196.062 281.114C196.062 280.083 196.899 279.245 197.928 279.245H209.12C210.149 279.245 210.985 280.083 210.985 281.114C210.985 282.145 210.149 282.983 209.12 282.983Z" fill="white"/>
<path d="M233.743 305.412H222.551C221.522 305.412 220.685 304.574 220.685 303.543C220.685 302.512 221.522 301.674 222.551 301.674H233.743C234.772 301.674 235.608 302.512 235.608 303.543C235.608 304.574 234.772 305.412 233.743 305.412Z" fill="white"/>
<path d="M213.597 324.851H202.405C201.376 324.851 200.539 324.013 200.539 322.982C200.539 321.951 201.376 321.113 202.405 321.113H213.597C214.626 321.113 215.462 321.951 215.462 322.982C215.462 324.013 214.626 324.851 213.597 324.851Z" fill="#E6E6E6"/>
<path d="M256.509 303.264C268.667 301.982 280.197 296.572 289.112 288.213C298.651 279.269 304.62 266.961 306.047 253.968C306.88 246.385 306.217 238.692 303.994 231.391C303.573 230.01 301.454 230.733 301.875 232.115C305.661 244.546 304.702 258.29 299.353 270.123C294.415 281.045 285.726 289.897 275.12 295.388C269.286 298.408 262.885 300.337 256.356 301.026C254.928 301.176 255.071 303.416 256.509 303.264Z" fill="#3F3D56"/>
<path d="M292.2 238.712L300.134 221.653L298.389 221.982L311.647 235.746C312.65 236.787 314.134 235.106 313.139 234.073L299.881 220.309C299.385 219.794 298.426 220.016 298.137 220.638L290.203 237.697C289.595 239.005 291.59 240.022 292.2 238.712Z" fill="#3F3D56"/>
<path d="M240.458 303.543C245.404 303.543 249.412 299.527 249.412 294.572C249.412 289.617 245.404 285.6 240.458 285.6C235.513 285.6 231.505 289.617 231.505 294.572C231.505 299.527 235.513 303.543 240.458 303.543Z" fill="#C5C5C5"/>
<path d="M243.614 290.032C243.245 289.931 242.961 290.159 242.827 290.48C242.002 292.46 241.177 294.44 240.351 296.42C239.489 295.161 238.626 293.902 237.763 292.643C237.3 291.967 236.191 292.607 236.659 293.29C237.751 294.883 238.842 296.476 239.934 298.069C240.268 298.557 240.89 298.427 241.103 297.916C242.089 295.551 243.075 293.186 244.061 290.82C244.194 290.501 243.917 290.116 243.614 290.032Z" fill="white"/>
<path d="M635 441.742H0V443H635V441.742Z" fill="#E6E6E6"/>
<path d="M227.109 182.425H200.085C196.016 182.425 192.705 179.108 192.705 175.03V147.952C192.705 143.874 196.016 140.557 200.085 140.557H227.109C231.178 140.557 234.489 143.874 234.489 147.952V175.03C234.489 179.108 231.178 182.425 227.109 182.425ZM200.085 142.46C197.063 142.46 194.604 144.924 194.604 147.952V175.03C194.604 178.059 197.063 180.522 200.085 180.522H227.109C230.131 180.522 232.59 178.059 232.59 175.03V147.952C232.59 144.924 230.131 142.46 227.109 142.46H200.085Z" fill="#3F3D56"/>
<path d="M227.089 174.337H210.681C205.22 174.337 200.777 169.885 200.777 164.413V147.972L227.089 174.337Z" fill="#C5C5C5"/>
<path d="M383.144 32.8963H361.911C358.713 32.8963 356.112 30.2898 356.112 27.086V5.8103C356.112 2.60652 358.713 0 361.911 0H383.144C386.341 0 388.943 2.60653 388.943 5.8103V27.086C388.943 30.2898 386.341 32.8963 383.144 32.8963ZM361.911 1.49529C359.536 1.49529 357.604 3.43084 357.604 5.8103V27.086C357.604 29.4655 359.536 31.401 361.911 31.401H383.144C385.519 31.401 387.45 29.4655 387.45 27.086V5.8103C387.45 3.43083 385.519 1.49529 383.144 1.49529H361.911Z" fill="#E6E6E6"/>
<path d="M383.128 26.5414H370.236C365.945 26.5414 362.454 23.0433 362.454 18.744V5.82637L383.128 26.5414Z" fill="#C5C5C5"/>
<path d="M431.644 79.2502H410.41C407.213 79.2502 404.612 76.6437 404.612 73.4399V52.1642C404.612 48.9604 407.213 46.3539 410.41 46.3539H431.644C434.841 46.3539 437.442 48.9604 437.442 52.1642V73.4399C437.442 76.6437 434.841 79.2502 431.644 79.2502ZM410.41 47.8492C408.036 47.8492 406.104 49.7847 406.104 52.1642V73.4399C406.104 75.8194 408.036 77.7549 410.41 77.7549H431.644C434.018 77.7549 435.95 75.8194 435.95 73.4399V52.1642C435.95 49.7847 434.018 47.8492 431.644 47.8492H410.41Z" fill="#E6E6E6"/>
<path d="M411.327 53.0827V72.5214H430.727L411.327 53.0827Z" fill="#C5C5C5"/>
<path d="M359.843 154.228V127.633C359.843 123.629 363.094 120.371 367.091 120.371H393.633C397.629 120.371 400.881 123.629 400.881 127.633V154.228C400.881 158.233 397.629 161.491 393.633 161.491H367.091C363.094 161.491 359.843 158.233 359.843 154.228ZM367.091 122.24C364.123 122.24 361.708 124.659 361.708 127.633V154.228C361.708 157.202 364.123 159.622 367.091 159.622H393.633C396.601 159.622 399.016 157.202 399.016 154.228V127.633C399.016 124.659 396.601 122.24 393.633 122.24H367.091Z" fill="#3F3D56"/>
<path d="M368.237 128.782L392.487 128.782V153.08L368.237 128.782Z" fill="#C5C5C5"/>
<path d="M145.297 132.22C155.84 132.22 164.387 123.656 164.387 113.091C164.387 102.527 155.84 93.9627 145.297 93.9627C134.754 93.9627 126.207 102.527 126.207 113.091C126.207 123.656 134.754 132.22 145.297 132.22Z" fill="#FFB6B6"/>
<path d="M171.066 106.165C167.336 109.904 164.351 113.642 164.351 113.642L162.859 107.661C162.859 107.661 162.515 107.915 161.911 108.319C159.546 109.933 153.196 113.993 148.1 114.868C145.832 115.257 143.817 115.01 142.504 113.642C139.721 110.733 138.892 109.216 138.713 108.438L137.706 115.032L132.266 117.38C132.266 117.38 132.266 125.589 138.236 131.585C138.527 131.877 138.81 132.236 139.086 132.654C141.937 136.961 143.981 147.503 145.279 156.467C146.428 164.437 146.981 171.151 146.981 171.151C146.981 171.151 141.332 164.063 135.132 163.098C134.788 163.046 134.445 163.009 134.102 163.001C133.99 162.986 133.871 162.986 133.759 162.986C127.043 162.986 112.867 168.22 112.867 168.22C112.867 168.22 103.167 152.519 109.136 148.033C115.105 143.548 118.836 121.118 118.836 121.118C118.836 121.118 118.59 111.518 121.059 102.913C122.895 96.5208 126.223 90.6742 132.267 89.7172C146.443 87.4743 146.443 79.2502 155.397 88.2219C156.136 88.9621 156.882 89.6724 157.628 90.3602C165.97 98.046 174.491 102.734 171.066 106.165Z" fill="#2F2E41"/>
<path d="M420.032 40.6416C421.15 36.6295 420.886 32.2995 419.364 28.429C417.736 24.2873 414.599 20.8556 410.678 18.7771C408.39 17.5641 405.879 16.8111 403.297 16.6017C402.809 16.5621 402.772 17.324 403.26 17.3636C407.657 17.7202 411.874 19.7443 414.938 22.9202C417.766 25.8517 419.472 29.7125 419.877 33.7597C420.099 35.986 419.907 38.2554 419.307 40.4101C419.176 40.8812 419.9 41.1163 420.032 40.6416Z" fill="#E6E6E6"/>
<path d="M404.131 21.2545L399.741 16.6056L399.627 17.1993L405.629 14.7222C406.083 14.5349 405.739 13.8543 405.288 14.0402L399.286 16.5173C399.061 16.61 399.011 16.9416 399.171 17.1111L403.561 21.7601C403.897 22.1164 404.468 21.6115 404.131 21.2545Z" fill="#E6E6E6"/>
<path d="M370.675 42.1632C369.557 46.1753 369.821 50.5053 371.343 54.3758C372.971 58.5175 376.108 61.9492 380.029 64.0277C382.317 65.2407 384.828 65.9937 387.41 66.2031C387.898 66.2427 387.935 65.4808 387.446 65.4412C383.05 65.0846 378.833 63.0604 375.769 59.8846C372.941 56.9531 371.235 53.0923 370.83 49.045C370.608 46.8187 370.8 44.5494 371.4 42.3947C371.531 41.9236 370.807 41.6885 370.675 42.1632Z" fill="#E6E6E6"/>
<path d="M386.576 61.5503L390.966 66.1992L391.08 65.6054L385.078 68.0826C384.624 68.2699 384.968 68.9505 385.419 68.7646L391.421 66.2875C391.646 66.1948 391.696 65.8632 391.536 65.6937L387.146 61.0447C386.81 60.6884 386.239 61.1933 386.576 61.5503Z" fill="#E6E6E6"/>
</g>
<defs>
<clipPath id="clip0_707_697">
<rect width="635" height="443" fill="white"/>
</clipPath>
</defs>
</svg>
